<?xml version="1.0" standalone="no"?>
<!DOCTYPE svg PUBLIC "-//W3C//DTD SVG 20010904//EN"
 "http://www.w3.org/TR/2001/REC-SVG-20010904/DTD/svg10.dtd">
<svg version="1.0" xmlns="http://www.w3.org/2000/svg"
 width="355.000000pt" height="296.000000pt" viewBox="0 0 355.000000 296.000000"
 preserveAspectRatio="xMidYMid meet">

<g transform="translate(0.000000,296.000000) scale(0.100000,-0.100000)"
fill="#fff" stroke="solid">
<path d="M181 2684 c266 -303 610 -670 682 -730 l58 -47 21 21 21 21 -229 228
c-283 283 -658 626 -553 507z"/>
<path d="M1774 2125 c-287 -289 -526 -525 -531 -525 -10 0 -43 91 -43 119 0
34 -40 81 -92 107 -29 14 -70 42 -91 62 -37 36 -37 36 -57 17 -19 -20 -19 -20
34 -83 31 -36 63 -88 75 -120 29 -76 46 -95 126 -133 l67 -32 518 518 518 518
28 -21 c16 -11 83 -75 149 -141 66 -67 123 -121 127 -121 5 0 8 29 8 65 l0 65
95 0 95 0 0 -147 c0 -126 3 -152 20 -188 13 -26 95 -115 224 -242 112 -110
209 -209 215 -220 10 -20 7 -21 -104 -28 l-115 -7 0 -474 0 -474 -85 0 -85 0
0 -200 0 -200 79 0 c43 0 93 -3 110 -6 29 -6 31 -5 31 25 l0 31 -59 0 c-87 0
-91 3 -91 66 l0 54 64 0 c58 0 64 2 70 23 3 12 6 25 6 28 0 4 -31 10 -70 14
l-70 7 0 49 0 49 75 0 75 0 0 480 0 480 163 2 162 3 -277 281 -278 280 0 187
0 187 -149 0 -149 0 -11 -32 -12 -33 -116 118 c-64 64 -119 117 -121 117 -3 0
-241 -236 -528 -525z"/>
<path d="M1203 1339 c-69 -20 -113 -125 -113 -269 0 -102 20 -179 59 -222 23
-26 37 -32 82 -36 45 -3 59 0 82 18 33 26 53 62 62 113 l7 37 -44 0 c-43 0
-46 -2 -61 -40 -11 -29 -21 -40 -36 -40 -35 0 -46 37 -46 155 0 113 17 200 40
209 15 6 40 -20 49 -51 6 -19 14 -23 52 -23 l46 0 -7 33 c-21 96 -88 142 -172
116z"/>
<path d="M1491 1103 c-29 -126 -55 -238 -58 -251 -5 -22 -3 -23 43 -20 49 3
49 3 58 46 l9 42 48 0 48 0 8 -42 c9 -43 9 -43 57 -46 42 -3 47 -1 42 15 -7
24 -106 470 -106 477 0 3 -22 6 -48 6 l-48 0 -53 -227z m127 -10 c12 -54 22
-104 22 -110 0 -9 -17 -13 -50 -13 -33 0 -50 4 -50 12 0 26 44 208 50 208 4 0
16 -44 28 -97z"/>
<path d="M1856 1297 c-31 -26 -39 -40 -43 -78 -3 -26 -1 -55 5 -65 6 -10 45
-53 87 -95 67 -67 77 -81 78 -114 1 -26 -5 -42 -18 -51 -30 -22 -48 -13 -58
29 -9 37 -9 37 -59 37 l-50 0 7 -37 c8 -46 27 -77 60 -99 80 -53 197 -5 221
90 14 59 -4 96 -86 177 -76 74 -99 112 -86 144 8 21 42 19 58 -3 8 -12 31 -21
60 -25 l46 -6 -8 28 c-20 72 -59 101 -133 101 -35 0 -51 -6 -81 -33z"/>
<path d="M2245 1318 c-5 -15 -115 -477 -115 -484 0 -3 21 -4 47 -2 45 3 47 4
57 43 11 39 13 40 56 40 44 0 45 -1 58 -42 14 -42 15 -43 58 -43 24 0 44 1 44
3 0 19 -30 157 -66 310 l-46 187 -44 0 c-27 0 -46 -5 -49 -12z m73 -220 c12
-51 22 -99 22 -105 0 -9 -17 -13 -50 -13 -29 0 -50 5 -50 11 0 23 44 199 50
199 3 0 16 -42 28 -92z"/>
<path d="M2000 691 c-5 -11 -10 -28 -10 -37 0 -14 6 -12 30 11 16 15 27 32 24
37 -9 14 -33 9 -44 -11z"/>
<path d="M2067 485 c-21 -85 -41 -177 -44 -205 l-6 -51 33 3 c28 2 35 9 45 38
10 31 16 35 45 35 29 0 35 -4 45 -35 10 -30 17 -35 47 -38 l36 -3 -15 78 c-15
81 -70 314 -75 318 -2 1 -19 5 -39 9 l-35 6 -37 -155z m81 -133 c-28 -2 -53
-1 -55 2 -6 6 35 194 45 211 4 6 18 -39 33 -100 l26 -110 -49 -3z"/>
<path d="M2328 633 l-28 -4 0 -200 0 -199 34 0 c32 0 34 2 40 46 3 26 6 63 6
84 0 63 13 54 46 -32 31 -82 32 -83 68 -86 20 -2 36 1 36 6 0 5 -14 42 -32 81
-28 64 -30 73 -16 89 40 45 58 113 42 157 -14 36 -123 68 -196 58z m94 -70
c34 -30 16 -93 -27 -93 -24 0 -25 3 -25 55 0 60 15 71 52 38z"/>
<path d="M2580 606 c0 -35 1 -36 40 -36 l40 0 0 -165 0 -165 40 0 40 0 0 165
0 165 45 0 c43 0 45 1 45 30 l0 30 -79 0 c-43 0 -99 3 -125 6 l-46 7 0 -37z"/>
<path d="M3194 606 c-26 -26 -34 -42 -34 -71 0 -32 9 -46 63 -103 70 -73 80
-92 71 -128 -10 -40 -64 -25 -64 18 0 14 -8 18 -36 18 l-37 0 6 -40 c7 -54 38
-79 99 -80 39 0 54 5 80 29 29 26 33 35 33 80 0 49 -2 53 -67 118 -51 51 -68
75 -68 96 0 21 5 27 21 27 12 0 27 -7 33 -15 6 -8 26 -18 45 -21 32 -7 33 -6
26 17 -27 91 -109 117 -171 55z"/>
<path d="M1680 432 l0 -200 63 5 c133 11 172 56 172 198 0 145 -35 187 -161
193 l-74 4 0 -200z m131 119 c22 -18 24 -26 24 -116 0 -90 -2 -98 -24 -116
-47 -39 -51 -30 -51 116 0 146 4 155 51 116z"/>
</g>
</svg>
